<svg width="95" height="95" viewBox="0 0 95 95" fill="none" xmlns="http://www.w3.org/2000/svg">
<path fill-rule="evenodd" clip-rule="evenodd" d="M0 46C0 44.9921 0.0324155 43.9918 0.0962608 43C0.526735 36.313 2.38603 30.015 5.37203 24.4082C5.91719 23.3845 6.4999 22.3839 7.11832 21.4082C15.2734 8.54134 29.6392 0 46 0C62.3608 0 76.7266 8.54134 84.8817 21.4082C85.5001 22.3839 86.0828 23.3845 86.628 24.4082C89.614 30.015 91.4733 36.313 91.9037 43C91.9676 43.9918 92 44.9921 92 46C92 47.0079 91.9676 48.0082 91.9037 49C91.6767 52.5271 91.0521 55.946 90.0743 59.2124C88.4333 57.9944 86.6172 56.9988 84.6708 56.2704C85.2915 53.9259 85.7048 51.4958 85.8895 49H71.2939C71.2123 51.3001 71.0376 53.5541 70.7765 55.7498C68.4156 56.4353 66.2179 57.5047 64.2556 58.8859C64.802 55.7594 65.1582 52.4488 65.2899 49H49V64.5918H58.654C57.4199 66.4159 56.4516 68.4344 55.8046 70.5918H49V85.4352L49.0043 85.4336C51.0024 84.6932 53.1253 83.1939 55.205 80.7447C55.8052 84.1962 57.2075 87.3724 59.2129 90.0742C55.028 91.327 50.5926 92 46 92C29.6392 92 15.2734 83.4587 7.11833 70.5918C6.4999 69.6161 5.91719 68.6155 5.37203 67.5918C2.38603 61.985 0.526735 55.687 0.0962607 49C0.0324155 48.0082 0 47.0079 0 46ZM67.4246 21.4082C65.7267 16.5465 63.5402 12.3023 60.9904 8.90311C67.5546 11.5578 73.2552 15.9049 77.5508 21.4082H67.4246ZM71.2939 43C71.0981 37.4811 70.3661 32.2273 69.1914 27.4082H81.4272C83.9077 32.1235 85.4748 37.396 85.8895 43H71.2939ZM14.4492 21.4082C18.7448 15.9049 24.4454 11.5578 31.0096 8.90311C28.4598 12.3023 26.2733 16.5465 24.5754 21.4082H14.4492ZM10.5728 27.4082H22.8086C21.6339 32.2273 20.9019 37.4811 20.7061 43H6.11055C6.52522 37.396 8.09233 32.1235 10.5728 27.4082ZM6.11055 49H20.7061C20.9019 54.5189 21.6339 59.7727 22.8086 64.5918H10.5728C8.09233 59.8765 6.52522 54.604 6.11055 49ZM14.4492 70.5918H24.5754C26.2733 75.4535 28.4598 79.6977 31.0096 83.0969C24.4454 80.4422 18.7448 76.0951 14.4492 70.5918ZM43 70.5918V85.4352C39.8685 84.2764 36.4301 81.2538 33.332 75.6313C32.4821 74.0889 31.6925 72.4035 30.9759 70.5918H43ZM43 64.5918H29.0021C27.7392 59.8966 26.9251 54.6326 26.7101 49H43V64.5918ZM43 43H26.7101C26.9251 37.3674 27.7392 32.1034 29.0021 27.4082H43V43ZM43 21.4082H30.9759C31.6925 19.5965 32.4821 17.9111 33.332 16.3687C36.4287 10.7488 39.8654 7.72635 42.9957 6.56638L43 6.56479V21.4082ZM49 43V27.4082H62.9979C64.2607 32.1034 65.0749 37.3674 65.2899 43H49ZM58.668 16.3687C59.5179 17.9111 60.3075 19.5965 61.0241 21.4082H49V6.56479C52.1315 7.7236 55.5699 10.7462 58.668 16.3687ZM95 77C95 86.9411 86.9411 95 77 95C67.0589 95 59 86.9411 59 77C59 67.0589 67.0589 59 77 59C86.9411 59 95 67.0589 95 77ZM63.6547 77C63.6547 84.3704 69.6296 90.3453 77 90.3453C84.3704 90.3453 90.3453 84.3704 90.3453 77C90.3453 69.6296 84.3704 63.6547 77 63.6547C69.6296 63.6547 63.6547 69.6296 63.6547 77ZM72.5653 84.9314L68.9463 81.3124L73.3194 76.9393L68.9666 72.5866L72.5856 68.9675L76.9384 73.3203L81.3126 68.946L84.9317 72.5651L80.5574 76.9393L84.9088 81.2907L81.2898 84.9098L76.9384 80.5584L72.5653 84.9314Z" fill="#DB5553"/>
</svg>
